<mxfile host="Electron" agent="Mozilla/5.0 (Macintosh; Intel Mac OS X 10_15_7) AppleWebKit/537.36 (KHTML, like Gecko) draw.io/26.0.4 Chrome/128.0.6613.186 Electron/32.2.5 Safari/537.36" version="26.0.4">
  <diagram name="Seite-1" id="cMu12UTUHUqs-usWebE3">
    <mxGraphModel dx="1122" dy="793" grid="1" gridSize="10" guides="1" tooltips="1" connect="1" arrows="1" fold="1" page="1" pageScale="1" pageWidth="827" pageHeight="1169" math="0" shadow="0">
      <root>
        <mxCell id="0" />
        <mxCell id="1" parent="0" />
        <mxCell id="veAT1wjvBn1vrY7GnxaN-27" value="" style="rounded=0;whiteSpace=wrap;html=1;fillColor=light-dark(#e6e6e6, #ededed);" vertex="1" parent="1">
          <mxGeometry x="20" y="127" width="1020" height="470" as="geometry" />
        </mxCell>
        <mxCell id="veAT1wjvBn1vrY7GnxaN-25" value="&lt;font style=&quot;font-size: 16px;&quot;&gt;STEP 3:&lt;/font&gt;&lt;div&gt;&lt;span style=&quot;background-color: transparent; color: light-dark(rgb(0, 0, 0), rgb(255, 255, 255));&quot;&gt;Stack the models.&lt;/span&gt;&lt;/div&gt;&lt;div&gt;&lt;span style=&quot;background-color: transparent; color: light-dark(rgb(0, 0, 0), rgb(255, 255, 255));&quot;&gt;Throw away first layer of model 2.&lt;/span&gt;&lt;/div&gt;&lt;div&gt;&lt;span style=&quot;background-color: transparent; color: light-dark(rgb(0, 0, 0), rgb(255, 255, 255));&quot;&gt;Use last layer of model 1 only for decoding early.&lt;/span&gt;&lt;br&gt;&lt;/div&gt;" style="rounded=0;whiteSpace=wrap;html=1;fillColor=#FFFFFF;verticalAlign=top;" vertex="1" parent="1">
          <mxGeometry x="670" y="142.25" width="355.5" height="440" as="geometry" />
        </mxCell>
        <mxCell id="veAT1wjvBn1vrY7GnxaN-24" value="&lt;font style=&quot;font-size: 16px;&quot;&gt;STEP 2:&lt;/font&gt;&lt;div&gt;Train models asynchronously on trained Embedding weights.&lt;/div&gt;&lt;div&gt;Treat last layer of model 1 and first layer of model 2 seperately.&lt;/div&gt;" style="rounded=0;whiteSpace=wrap;html=1;fillColor=#FFFFFF;verticalAlign=top;" vertex="1" parent="1">
          <mxGeometry x="280" y="195" width="380" height="330" as="geometry" />
        </mxCell>
        <mxCell id="veAT1wjvBn1vrY7GnxaN-23" value="&lt;font style=&quot;font-size: 16px;&quot;&gt;STEP 1:&lt;/font&gt;&lt;div&gt;Train Embedding &amp;amp; LM head (tied weights)&lt;/div&gt;&lt;div&gt;using shallow transformer&lt;/div&gt;" style="rounded=0;whiteSpace=wrap;html=1;fillColor=#FFFFFF;verticalAlign=top;" vertex="1" parent="1">
          <mxGeometry x="30" y="250" width="240" height="220" as="geometry" />
        </mxCell>
        <mxCell id="veAT1wjvBn1vrY7GnxaN-22" style="edgeStyle=orthogonalEdgeStyle;rounded=0;orthogonalLoop=1;jettySize=auto;html=1;exitX=0.5;exitY=0;exitDx=0;exitDy=0;entryX=0.5;entryY=1;entryDx=0;entryDy=0;" edge="1" parent="1" source="veAT1wjvBn1vrY7GnxaN-4" target="veAT1wjvBn1vrY7GnxaN-11">
          <mxGeometry relative="1" as="geometry" />
        </mxCell>
        <mxCell id="hf-5a7G72kzq3b17Jqu1-5" style="edgeStyle=orthogonalEdgeStyle;rounded=0;orthogonalLoop=1;jettySize=auto;html=1;exitX=0.5;exitY=0;exitDx=0;exitDy=0;entryX=0.5;entryY=1;entryDx=0;entryDy=0;" parent="1" source="hf-5a7G72kzq3b17Jqu1-6" target="hf-5a7G72kzq3b17Jqu1-11" edge="1">
          <mxGeometry relative="1" as="geometry" />
        </mxCell>
        <mxCell id="hf-5a7G72kzq3b17Jqu1-6" value="Embedding" style="rounded=1;whiteSpace=wrap;html=1;fillColor=light-dark(#ce0000, #ffa3a3);fontColor=#FFFFFF;" parent="1" vertex="1">
          <mxGeometry x="85" y="430" width="170" height="30" as="geometry" />
        </mxCell>
        <mxCell id="hf-5a7G72kzq3b17Jqu1-7" value="LM head" style="rounded=1;whiteSpace=wrap;html=1;fillColor=light-dark(#cd0000, #ffa3a3);fontColor=#FFFFFF;" parent="1" vertex="1">
          <mxGeometry x="85" y="320" width="170" height="30" as="geometry" />
        </mxCell>
        <mxCell id="hf-5a7G72kzq3b17Jqu1-8" value="" style="endArrow=classic;startArrow=classic;html=1;rounded=0;entryX=0;entryY=0.5;entryDx=0;entryDy=0;exitX=0;exitY=0.5;exitDx=0;exitDy=0;" parent="1" source="hf-5a7G72kzq3b17Jqu1-6" target="hf-5a7G72kzq3b17Jqu1-7" edge="1">
          <mxGeometry width="50" height="50" relative="1" as="geometry">
            <mxPoint x="190" y="400" as="sourcePoint" />
            <mxPoint x="240" y="350" as="targetPoint" />
            <Array as="points">
              <mxPoint x="40" y="445" />
              <mxPoint x="40" y="335" />
            </Array>
          </mxGeometry>
        </mxCell>
        <mxCell id="hf-5a7G72kzq3b17Jqu1-9" value="&lt;font style=&quot;font-size: 16px;&quot;&gt;tied weights&lt;/font&gt;" style="edgeLabel;html=1;align=center;verticalAlign=middle;resizable=0;points=[];rotation=-90;labelBackgroundColor=none;" parent="hf-5a7G72kzq3b17Jqu1-8" vertex="1" connectable="0">
          <mxGeometry x="-0.0349" y="-1" relative="1" as="geometry">
            <mxPoint x="9" y="-3" as="offset" />
          </mxGeometry>
        </mxCell>
        <mxCell id="hf-5a7G72kzq3b17Jqu1-10" style="edgeStyle=orthogonalEdgeStyle;rounded=0;orthogonalLoop=1;jettySize=auto;html=1;exitX=0.5;exitY=0;exitDx=0;exitDy=0;entryX=0.5;entryY=1;entryDx=0;entryDy=0;" parent="1" source="hf-5a7G72kzq3b17Jqu1-11" target="hf-5a7G72kzq3b17Jqu1-7" edge="1">
          <mxGeometry relative="1" as="geometry" />
        </mxCell>
        <mxCell id="hf-5a7G72kzq3b17Jqu1-11" value="Shallow Transformer" style="rounded=1;whiteSpace=wrap;html=1;fillColor=#4D4D4D;fontColor=#FFFFFF;" parent="1" vertex="1">
          <mxGeometry x="110" y="370" width="120" height="40" as="geometry" />
        </mxCell>
        <mxCell id="hf-5a7G72kzq3b17Jqu1-12" value="Embedding" style="rounded=1;whiteSpace=wrap;html=1;fillColor=#009999;fontColor=#FFFFFF;" parent="1" vertex="1">
          <mxGeometry x="292.5" y="480.25" width="170" height="30" as="geometry" />
        </mxCell>
        <mxCell id="hf-5a7G72kzq3b17Jqu1-13" value="LM head" style="rounded=1;whiteSpace=wrap;html=1;fillColor=#009999;fontColor=#FFFFFF;" parent="1" vertex="1">
          <mxGeometry x="292.5" y="260" width="170" height="30" as="geometry" />
        </mxCell>
        <mxCell id="veAT1wjvBn1vrY7GnxaN-2" style="edgeStyle=orthogonalEdgeStyle;rounded=0;orthogonalLoop=1;jettySize=auto;html=1;entryX=0.5;entryY=1;entryDx=0;entryDy=0;" edge="1" parent="1" source="hf-5a7G72kzq3b17Jqu1-12" target="hf-5a7G72kzq3b17Jqu1-13">
          <mxGeometry relative="1" as="geometry" />
        </mxCell>
        <mxCell id="hf-5a7G72kzq3b17Jqu1-14" value="Transformer 1" style="rounded=1;whiteSpace=wrap;html=1;fillColor=#FF8000;fontColor=#FFFFFF;" parent="1" vertex="1">
          <mxGeometry x="317.5" y="350.25" width="120" height="110" as="geometry" />
        </mxCell>
        <mxCell id="hf-5a7G72kzq3b17Jqu1-15" value="" style="shape=mxgraph.signs.nature.snowflake;html=1;pointerEvents=1;fillColor=#FFFFFF;strokeColor=none;verticalLabelPosition=bottom;verticalAlign=top;align=center;" parent="1" vertex="1">
          <mxGeometry x="302.5" y="487.75" width="15" height="15" as="geometry" />
        </mxCell>
        <mxCell id="hf-5a7G72kzq3b17Jqu1-16" value="" style="shape=mxgraph.signs.nature.snowflake;html=1;pointerEvents=1;fillColor=#FFFFFF;strokeColor=none;verticalLabelPosition=bottom;verticalAlign=top;align=center;" parent="1" vertex="1">
          <mxGeometry x="302.5" y="267.5" width="15" height="15" as="geometry" />
        </mxCell>
        <mxCell id="hf-5a7G72kzq3b17Jqu1-17" value="Embedding" style="rounded=1;whiteSpace=wrap;html=1;fillColor=#009999;fontColor=#FFFFFF;" parent="1" vertex="1">
          <mxGeometry x="480" y="480.25" width="170" height="30" as="geometry" />
        </mxCell>
        <mxCell id="hf-5a7G72kzq3b17Jqu1-18" value="LM head" style="rounded=1;whiteSpace=wrap;html=1;fillColor=#009999;fontColor=#FFFFFF;" parent="1" vertex="1">
          <mxGeometry x="480" y="260" width="170" height="30" as="geometry" />
        </mxCell>
        <mxCell id="hf-5a7G72kzq3b17Jqu1-89" style="edgeStyle=orthogonalEdgeStyle;rounded=0;orthogonalLoop=1;jettySize=auto;html=1;exitX=0.5;exitY=0;exitDx=0;exitDy=0;entryX=0.5;entryY=1;entryDx=0;entryDy=0;" parent="1" source="hf-5a7G72kzq3b17Jqu1-17" target="hf-5a7G72kzq3b17Jqu1-18" edge="1">
          <mxGeometry relative="1" as="geometry" />
        </mxCell>
        <mxCell id="hf-5a7G72kzq3b17Jqu1-19" value="Transformer 2" style="rounded=1;whiteSpace=wrap;html=1;fillColor=#990099;fontColor=#FFFFFF;" parent="1" vertex="1">
          <mxGeometry x="505" y="307.25" width="120" height="110" as="geometry" />
        </mxCell>
        <mxCell id="hf-5a7G72kzq3b17Jqu1-20" value="" style="shape=mxgraph.signs.nature.snowflake;html=1;pointerEvents=1;fillColor=#FFFFFF;strokeColor=none;verticalLabelPosition=bottom;verticalAlign=top;align=center;" parent="1" vertex="1">
          <mxGeometry x="490" y="487.75" width="15" height="15" as="geometry" />
        </mxCell>
        <mxCell id="hf-5a7G72kzq3b17Jqu1-21" value="" style="shape=mxgraph.signs.nature.snowflake;html=1;pointerEvents=1;fillColor=#FFFFFF;strokeColor=none;verticalLabelPosition=bottom;verticalAlign=top;align=center;" parent="1" vertex="1">
          <mxGeometry x="490" y="267.5" width="15" height="15" as="geometry" />
        </mxCell>
        <mxCell id="veAT1wjvBn1vrY7GnxaN-1" value="Transformer Block" style="rounded=1;whiteSpace=wrap;html=1;fillColor=#FF8000;fontColor=#FFFFFF;" vertex="1" parent="1">
          <mxGeometry x="317.5" y="307.25" width="120" height="22.75" as="geometry" />
        </mxCell>
        <mxCell id="veAT1wjvBn1vrY7GnxaN-3" value="Transformer Block" style="rounded=1;whiteSpace=wrap;html=1;fillColor=#990099;fontColor=#FFFFFF;" vertex="1" parent="1">
          <mxGeometry x="505" y="435" width="120" height="25" as="geometry" />
        </mxCell>
        <mxCell id="veAT1wjvBn1vrY7GnxaN-4" value="Embedding" style="rounded=1;whiteSpace=wrap;html=1;fillColor=#009999;fontColor=#FFFFFF;" vertex="1" parent="1">
          <mxGeometry x="682.5" y="537.25" width="170" height="30" as="geometry" />
        </mxCell>
        <mxCell id="veAT1wjvBn1vrY7GnxaN-21" style="edgeStyle=orthogonalEdgeStyle;rounded=0;orthogonalLoop=1;jettySize=auto;html=1;exitX=0.5;exitY=0;exitDx=0;exitDy=0;entryX=0.5;entryY=1;entryDx=0;entryDy=0;" edge="1" parent="1" source="veAT1wjvBn1vrY7GnxaN-7" target="veAT1wjvBn1vrY7GnxaN-19">
          <mxGeometry relative="1" as="geometry">
            <Array as="points">
              <mxPoint x="767.5" y="392" />
              <mxPoint x="927.5" y="392" />
            </Array>
          </mxGeometry>
        </mxCell>
        <mxCell id="veAT1wjvBn1vrY7GnxaN-7" value="Transformer 1" style="rounded=1;whiteSpace=wrap;html=1;fillColor=#FF8000;fontColor=#FFFFFF;" vertex="1" parent="1">
          <mxGeometry x="707.5" y="407.25" width="120" height="110" as="geometry" />
        </mxCell>
        <mxCell id="veAT1wjvBn1vrY7GnxaN-8" value="" style="shape=mxgraph.signs.nature.snowflake;html=1;pointerEvents=1;fillColor=#FFFFFF;strokeColor=none;verticalLabelPosition=bottom;verticalAlign=top;align=center;" vertex="1" parent="1">
          <mxGeometry x="692.5" y="544.75" width="15" height="15" as="geometry" />
        </mxCell>
        <mxCell id="veAT1wjvBn1vrY7GnxaN-11" value="LM head" style="rounded=1;whiteSpace=wrap;html=1;fillColor=#009999;fontColor=#FFFFFF;" vertex="1" parent="1">
          <mxGeometry x="682.5" y="222.25" width="170" height="30" as="geometry" />
        </mxCell>
        <mxCell id="veAT1wjvBn1vrY7GnxaN-13" value="Transformer 2" style="rounded=1;whiteSpace=wrap;html=1;fillColor=#990099;fontColor=#FFFFFF;" vertex="1" parent="1">
          <mxGeometry x="707.5" y="272" width="120" height="110" as="geometry" />
        </mxCell>
        <mxCell id="veAT1wjvBn1vrY7GnxaN-15" value="" style="shape=mxgraph.signs.nature.snowflake;html=1;pointerEvents=1;fillColor=#FFFFFF;strokeColor=none;verticalLabelPosition=bottom;verticalAlign=top;align=center;" vertex="1" parent="1">
          <mxGeometry x="692.5" y="229.75" width="15" height="15" as="geometry" />
        </mxCell>
        <mxCell id="veAT1wjvBn1vrY7GnxaN-16" value="Transformer Block" style="rounded=1;whiteSpace=wrap;html=1;fillColor=#FF8000;fontColor=#FFFFFF;" vertex="1" parent="1">
          <mxGeometry x="867.5" y="359.25" width="120" height="22.75" as="geometry" />
        </mxCell>
        <mxCell id="veAT1wjvBn1vrY7GnxaN-19" value="LM head" style="rounded=1;whiteSpace=wrap;html=1;fillColor=#009999;fontColor=#FFFFFF;" vertex="1" parent="1">
          <mxGeometry x="842.5" y="309.5" width="170" height="30" as="geometry" />
        </mxCell>
        <mxCell id="veAT1wjvBn1vrY7GnxaN-20" value="" style="shape=mxgraph.signs.nature.snowflake;html=1;pointerEvents=1;fillColor=#FFFFFF;strokeColor=none;verticalLabelPosition=bottom;verticalAlign=top;align=center;" vertex="1" parent="1">
          <mxGeometry x="852.5" y="317" width="15" height="15" as="geometry" />
        </mxCell>
      </root>
    </mxGraphModel>
  </diagram>
</mxfile>
